<svg width="50" height="50" viewBox="0 0 50 50" fill="none" xmlns="http://www.w3.org/2000/svg">
<path d="M40.625 6.25H35.9375V4.6875C35.9375 4.2731 35.7729 3.87567 35.4799 3.58265C35.1868 3.28962 34.7894 3.125 34.375 3.125C33.9606 3.125 33.5632 3.28962 33.2701 3.58265C32.9771 3.87567 32.8125 4.2731 32.8125 4.6875V6.25H17.1875V4.6875C17.1875 4.2731 17.0229 3.87567 16.7299 3.58265C16.4368 3.28962 16.0394 3.125 15.625 3.125C15.2106 3.125 14.8132 3.28962 14.5201 3.58265C14.2271 3.87567 14.0625 4.2731 14.0625 4.6875V6.25H9.375C8.5462 6.25 7.75134 6.57924 7.16529 7.16529C6.57924 7.75134 6.25 8.5462 6.25 9.375V40.625C6.25 41.4538 6.57924 42.2487 7.16529 42.8347C7.75134 43.4208 8.5462 43.75 9.375 43.75H40.625C41.4538 43.75 42.2487 43.4208 42.8347 42.8347C43.4208 42.2487 43.75 41.4538 43.75 40.625V9.375C43.75 8.5462 43.4208 7.75134 42.8347 7.16529C42.2487 6.57924 41.4538 6.25 40.625 6.25ZM14.0625 9.375V10.9375C14.0625 11.3519 14.2271 11.7493 14.5201 12.0424C14.8132 12.3354 15.2106 12.5 15.625 12.5C16.0394 12.5 16.4368 12.3354 16.7299 12.0424C17.0229 11.7493 17.1875 11.3519 17.1875 10.9375V9.375H32.8125V10.9375C32.8125 11.3519 32.9771 11.7493 33.2701 12.0424C33.5632 12.3354 33.9606 12.5 34.375 12.5C34.7894 12.5 35.1868 12.3354 35.4799 12.0424C35.7729 11.7493 35.9375 11.3519 35.9375 10.9375V9.375H40.625V15.625H9.375V9.375H14.0625ZM40.625 40.625H9.375V18.75H40.625V40.625ZM27.3438 25.7812C27.3438 26.2448 27.2063 26.6979 26.9488 27.0834C26.6912 27.4688 26.3252 27.7692 25.8969 27.9466C25.4686 28.124 24.9974 28.1704 24.5428 28.08C24.0881 27.9895 23.6705 27.7663 23.3427 27.4385C23.0149 27.1108 22.7917 26.6931 22.7013 26.2385C22.6109 25.7838 22.6573 25.3126 22.8347 24.8843C23.0121 24.4561 23.3125 24.09 23.6979 23.8325C24.0833 23.575 24.5365 23.4375 25 23.4375C25.6216 23.4375 26.2177 23.6844 26.6573 24.124C27.0968 24.5635 27.3438 25.1596 27.3438 25.7812ZM35.9375 25.7812C35.9375 26.2448 35.8 26.6979 35.5425 27.0834C35.285 27.4688 34.9189 27.7692 34.4907 27.9466C34.0624 28.124 33.5912 28.1704 33.1365 28.08C32.6819 27.9895 32.2642 27.7663 31.9365 27.4385C31.6087 27.1108 31.3855 26.6931 31.295 26.2385C31.2046 25.7838 31.251 25.3126 31.4284 24.8843C31.6058 24.4561 31.9062 24.09 32.2916 23.8325C32.6771 23.575 33.1302 23.4375 33.5938 23.4375C34.2154 23.4375 34.8115 23.6844 35.251 24.124C35.6906 24.5635 35.9375 25.1596 35.9375 25.7812ZM18.75 33.5938C18.75 34.0573 18.6125 34.5104 18.355 34.8959C18.0975 35.2813 17.7314 35.5817 17.3032 35.7591C16.8749 35.9365 16.4036 35.9829 15.949 35.8925C15.4944 35.802 15.0767 35.5788 14.749 35.251C14.4212 34.9233 14.198 34.5056 14.1075 34.051C14.0171 33.5963 14.0635 33.1251 14.2409 32.6968C14.4183 32.2686 14.7187 31.9025 15.1041 31.645C15.4896 31.3875 15.9427 31.25 16.4062 31.25C17.0279 31.25 17.624 31.4969 18.0635 31.9365C18.5031 32.376 18.75 32.9721 18.75 33.5938ZM27.3438 33.5938C27.3438 34.0573 27.2063 34.5104 26.9488 34.8959C26.6912 35.2813 26.3252 35.5817 25.8969 35.7591C25.4686 35.9365 24.9974 35.9829 24.5428 35.8925C24.0881 35.802 23.6705 35.5788 23.3427 35.251C23.0149 34.9233 22.7917 34.5056 22.7013 34.051C22.6109 33.5963 22.6573 33.1251 22.8347 32.6968C23.0121 32.2686 23.3125 31.9025 23.6979 31.645C24.0833 31.3875 24.5365 31.25 25 31.25C25.6216 31.25 26.2177 31.4969 26.6573 31.9365C27.0968 32.376 27.3438 32.9721 27.3438 33.5938ZM35.9375 33.5938C35.9375 34.0573 35.8 34.5104 35.5425 34.8959C35.285 35.2813 34.9189 35.5817 34.4907 35.7591C34.0624 35.9365 33.5912 35.9829 33.1365 35.8925C32.6819 35.802 32.2642 35.5788 31.9365 35.251C31.6087 34.9233 31.3855 34.5056 31.295 34.051C31.2046 33.5963 31.251 33.1251 31.4284 32.6968C31.6058 32.2686 31.9062 31.9025 32.2916 31.645C32.6771 31.3875 33.1302 31.25 33.5938 31.25C34.2154 31.25 34.8115 31.4969 35.251 31.9365C35.6906 32.376 35.9375 32.9721 35.9375 33.5938Z" fill="#FF9000"/>
</svg>
