<svg width="50" height="50" viewBox="0 0 50 50" fill="none" xmlns="http://www.w3.org/2000/svg">
<path d="M40.625 17.5781H9.375C8.6498 17.5781 7.9543 17.8662 7.44151 18.379C6.92871 18.8918 6.64062 19.5873 6.64062 20.3125V39.0625C6.64062 39.7877 6.92871 40.4832 7.44151 40.996C7.9543 41.5088 8.6498 41.7969 9.375 41.7969H40.625C41.3502 41.7969 42.0457 41.5088 42.5585 40.996C43.0713 40.4832 43.3594 39.7877 43.3594 39.0625V20.3125C43.3594 19.5873 43.0713 18.8918 42.5585 18.379C42.0457 17.8662 41.3502 17.5781 40.625 17.5781ZM41.0156 39.0625C41.0156 39.1661 40.9745 39.2655 40.9012 39.3387C40.828 39.412 40.7286 39.4531 40.625 39.4531H9.375C9.2714 39.4531 9.17204 39.412 9.09879 39.3387C9.02553 39.2655 8.98438 39.1661 8.98438 39.0625V20.3125C8.98438 20.2089 9.02553 20.1095 9.09879 20.0363C9.17204 19.963 9.2714 19.9219 9.375 19.9219H40.625C40.7286 19.9219 40.828 19.963 40.9012 20.0363C40.9745 20.1095 41.0156 20.2089 41.0156 20.3125V39.0625ZM9.76562 12.5C9.76562 12.1892 9.88909 11.8911 10.1089 11.6714C10.3286 11.4516 10.6267 11.3281 10.9375 11.3281H39.0625C39.3733 11.3281 39.6714 11.4516 39.8911 11.6714C40.1109 11.8911 40.2344 12.1892 40.2344 12.5C40.2344 12.8108 40.1109 13.1089 39.8911 13.3286C39.6714 13.5484 39.3733 13.6719 39.0625 13.6719H10.9375C10.6267 13.6719 10.3286 13.5484 10.1089 13.3286C9.88909 13.1089 9.76562 12.8108 9.76562 12.5ZM12.8906 6.25C12.8906 5.9392 13.0141 5.64113 13.2339 5.42136C13.4536 5.20159 13.7517 5.07813 14.0625 5.07812H35.9375C36.2483 5.07812 36.5464 5.20159 36.7661 5.42136C36.9859 5.64113 37.1094 5.9392 37.1094 6.25C37.1094 6.5608 36.9859 6.85887 36.7661 7.07864C36.5464 7.29841 36.2483 7.42187 35.9375 7.42188H14.0625C13.7517 7.42187 13.4536 7.29841 13.2339 7.07864C13.0141 6.85887 12.8906 6.5608 12.8906 6.25Z" fill="#FF9000"/>
</svg>
