<svg width="50" height="50" viewBox="0 0 50 50" fill="none" xmlns="http://www.w3.org/2000/svg">
<path d="M32.8125 14.0625V39.0625C32.8125 39.4769 32.6479 39.8743 32.3549 40.1674C32.0618 40.4604 31.6644 40.625 31.25 40.625C30.8356 40.625 30.4382 40.4604 30.1451 40.1674C29.8521 39.8743 29.6875 39.4769 29.6875 39.0625V14.0625C29.6875 13.6481 29.8521 13.2507 30.1451 12.9576C30.4382 12.6646 30.8356 12.5 31.25 12.5C31.6644 12.5 32.0618 12.6646 32.3549 12.9576C32.6479 13.2507 32.8125 13.6481 32.8125 14.0625ZM39.0625 4.6875C38.6481 4.6875 38.2507 4.85212 37.9576 5.14515C37.6646 5.43817 37.5 5.8356 37.5 6.25V39.0625C37.5 39.4769 37.6646 39.8743 37.9576 40.1674C38.2507 40.4604 38.6481 40.625 39.0625 40.625C39.4769 40.625 39.8743 40.4604 40.1674 40.1674C40.4604 39.8743 40.625 39.4769 40.625 39.0625V6.25C40.625 5.8356 40.4604 5.43817 40.1674 5.14515C39.8743 4.85212 39.4769 4.6875 39.0625 4.6875ZM23.4375 20.3125C23.0231 20.3125 22.6257 20.4771 22.3326 20.7701C22.0396 21.0632 21.875 21.4606 21.875 21.875V39.0625C21.875 39.4769 22.0396 39.8743 22.3326 40.1674C22.6257 40.4604 23.0231 40.625 23.4375 40.625C23.8519 40.625 24.2493 40.4604 24.5424 40.1674C24.8354 39.8743 25 39.4769 25 39.0625V21.875C25 21.4606 24.8354 21.0632 24.5424 20.7701C24.2493 20.4771 23.8519 20.3125 23.4375 20.3125ZM15.625 28.125C15.2106 28.125 14.8132 28.2896 14.5201 28.5826C14.2271 28.8757 14.0625 29.2731 14.0625 29.6875V39.0625C14.0625 39.4769 14.2271 39.8743 14.5201 40.1674C14.8132 40.4604 15.2106 40.625 15.625 40.625C16.0394 40.625 16.4368 40.4604 16.7299 40.1674C17.0229 39.8743 17.1875 39.4769 17.1875 39.0625V29.6875C17.1875 29.2731 17.0229 28.8757 16.7299 28.5826C16.4368 28.2896 16.0394 28.125 15.625 28.125ZM7.8125 35.9375C7.3981 35.9375 7.00067 36.1021 6.70765 36.3951C6.41462 36.6882 6.25 37.0856 6.25 37.5V39.0625C6.25 39.4769 6.41462 39.8743 6.70765 40.1674C7.00067 40.4604 7.3981 40.625 7.8125 40.625C8.2269 40.625 8.62433 40.4604 8.91735 40.1674C9.21038 39.8743 9.375 39.4769 9.375 39.0625V37.5C9.375 37.0856 9.21038 36.6882 8.91735 36.3951C8.62433 36.1021 8.2269 35.9375 7.8125 35.9375Z" fill="#FF9000"/>
</svg>
