<svg width="50" height="50" viewBox="0 0 50 50" fill="none" xmlns="http://www.w3.org/2000/svg">
<path d="M41.7305 37.957C41.8756 38.1022 41.9908 38.2745 42.0694 38.4642C42.1479 38.6539 42.1884 38.8572 42.1884 39.0625C42.1884 39.2678 42.1479 39.4711 42.0694 39.6608C41.9908 39.8505 41.8756 40.0228 41.7305 40.168C41.5853 40.3131 41.413 40.4283 41.2233 40.5069C41.0336 40.5854 40.8303 40.6259 40.625 40.6259C40.4197 40.6259 40.2164 40.5854 40.0267 40.5069C39.837 40.4283 39.6647 40.3131 39.5195 40.168L35.9375 36.584L32.3555 40.168C32.0623 40.4612 31.6646 40.6259 31.25 40.6259C30.8354 40.6259 30.4377 40.4612 30.1445 40.168C29.8513 39.8748 29.6866 39.4771 29.6866 39.0625C29.6866 38.6479 29.8513 38.2502 30.1445 37.957L33.7285 34.375L30.1445 30.793C29.8513 30.4998 29.6866 30.1021 29.6866 29.6875C29.6866 29.2729 29.8513 28.8752 30.1445 28.582C30.4377 28.2888 30.8354 28.1241 31.25 28.1241C31.6646 28.1241 32.0623 28.2888 32.3555 28.582L35.9375 32.166L39.5195 28.582C39.8127 28.2888 40.2104 28.1241 40.625 28.1241C41.0396 28.1241 41.4373 28.2888 41.7305 28.582C42.0237 28.8752 42.1884 29.2729 42.1884 29.6875C42.1884 30.1021 42.0237 30.4998 41.7305 30.793L38.1465 34.375L41.7305 37.957ZM31.25 23.4375C31.6644 23.4375 32.0618 23.2729 32.3549 22.9799C32.6479 22.6868 32.8125 22.2894 32.8125 21.875V14.0625C32.8125 13.6481 32.6479 13.2507 32.3549 12.9576C32.0618 12.6646 31.6644 12.5 31.25 12.5C30.8356 12.5 30.4382 12.6646 30.1451 12.9576C29.8521 13.2507 29.6875 13.6481 29.6875 14.0625V21.875C29.6875 22.2894 29.8521 22.6868 30.1451 22.9799C30.4382 23.2729 30.8356 23.4375 31.25 23.4375ZM39.0625 23.4375C39.4769 23.4375 39.8743 23.2729 40.1674 22.9799C40.4604 22.6868 40.625 22.2894 40.625 21.875V6.25C40.625 5.8356 40.4604 5.43817 40.1674 5.14515C39.8743 4.85212 39.4769 4.6875 39.0625 4.6875C38.6481 4.6875 38.2507 4.85212 37.9576 5.14515C37.6646 5.43817 37.5 5.8356 37.5 6.25V21.875C37.5 22.2894 37.6646 22.6868 37.9576 22.9799C38.2507 23.2729 38.6481 23.4375 39.0625 23.4375ZM23.4375 20.3125C23.0231 20.3125 22.6257 20.4771 22.3326 20.7701C22.0396 21.0632 21.875 21.4606 21.875 21.875V39.0625C21.875 39.4769 22.0396 39.8743 22.3326 40.1674C22.6257 40.4604 23.0231 40.625 23.4375 40.625C23.8519 40.625 24.2493 40.4604 24.5424 40.1674C24.8354 39.8743 25 39.4769 25 39.0625V21.875C25 21.4606 24.8354 21.0632 24.5424 20.7701C24.2493 20.4771 23.8519 20.3125 23.4375 20.3125ZM15.625 28.125C15.2106 28.125 14.8132 28.2896 14.5201 28.5826C14.2271 28.8757 14.0625 29.2731 14.0625 29.6875V39.0625C14.0625 39.4769 14.2271 39.8743 14.5201 40.1674C14.8132 40.4604 15.2106 40.625 15.625 40.625C16.0394 40.625 16.4368 40.4604 16.7299 40.1674C17.0229 39.8743 17.1875 39.4769 17.1875 39.0625V29.6875C17.1875 29.2731 17.0229 28.8757 16.7299 28.5826C16.4368 28.2896 16.0394 28.125 15.625 28.125ZM7.8125 35.9375C7.3981 35.9375 7.00067 36.1021 6.70765 36.3951C6.41462 36.6882 6.25 37.0856 6.25 37.5V39.0625C6.25 39.4769 6.41462 39.8743 6.70765 40.1674C7.00067 40.4604 7.3981 40.625 7.8125 40.625C8.2269 40.625 8.62433 40.4604 8.91735 40.1674C9.21038 39.8743 9.375 39.4769 9.375 39.0625V37.5C9.375 37.0856 9.21038 36.6882 8.91735 36.3951C8.62433 36.1021 8.2269 35.9375 7.8125 35.9375Z" fill="#898989"/>
</svg>
