<svg width="50" height="50" viewBox="0 0 50 50" fill="none" xmlns="http://www.w3.org/2000/svg">
<path d="M43.75 19.1406H35.5469V10.9375C35.5469 10.6267 35.4234 10.3286 35.2036 10.1089C34.9839 9.88909 34.6858 9.76562 34.375 9.76562H10.5469V7.8125C10.5469 7.5017 10.4234 7.20363 10.2036 6.98386C9.98387 6.76409 9.6858 6.64063 9.375 6.64062C9.0642 6.64063 8.76613 6.76409 8.54636 6.98386C8.32659 7.20363 8.20313 7.5017 8.20312 7.8125V42.1875C8.20313 42.4983 8.32659 42.7964 8.54636 43.0161C8.76613 43.2359 9.0642 43.3594 9.375 43.3594C9.6858 43.3594 9.98387 43.2359 10.2036 43.0161C10.4234 42.7964 10.5469 42.4983 10.5469 42.1875V40.2344H28.125C28.4358 40.2344 28.7339 40.1109 28.9536 39.8911C29.1734 39.6714 29.2969 39.3733 29.2969 39.0625V30.8594H43.75C44.0608 30.8594 44.3589 30.7359 44.5786 30.5161C44.7984 30.2964 44.9219 29.9983 44.9219 29.6875V20.3125C44.9219 20.0017 44.7984 19.7036 44.5786 19.4839C44.3589 19.2641 44.0608 19.1406 43.75 19.1406ZM33.2031 12.1094V19.1406H10.5469V12.1094H33.2031ZM26.9531 37.8906H10.5469V30.8594H26.9531V37.8906ZM42.5781 28.5156H10.5469V21.4844H42.5781V28.5156Z" fill="#FF9000"/>
</svg>
