<svg width="50" height="50" viewBox="0 0 50 50" fill="none" xmlns="http://www.w3.org/2000/svg">
<path d="M19.9219 21.3867V7.32422C19.922 7.13669 19.8771 6.95188 19.7909 6.7853C19.7048 6.61873 19.5799 6.47526 19.4268 6.36695C19.2738 6.25864 19.0969 6.18865 18.9112 6.16286C18.7254 6.13707 18.5362 6.15624 18.3594 6.21875C13.8855 7.80017 10.123 10.9266 7.74904 15.0353C5.37513 19.144 4.54575 23.9651 5.41017 28.6309C5.44415 28.8154 5.52194 28.989 5.63699 29.1373C5.75205 29.2855 5.90101 29.4039 6.07135 29.4825C6.24169 29.5612 6.42843 29.5978 6.61586 29.5893C6.8033 29.5808 6.98594 29.5274 7.14845 29.4336L19.3359 22.4023C19.5142 22.2994 19.6622 22.1514 19.7651 21.9731C19.8679 21.7948 19.922 21.5926 19.9219 21.3867ZM17.5781 20.7031L7.48829 26.5234C7.44402 26.0169 7.42189 25.5091 7.42189 25C7.42441 21.6533 8.38123 18.3766 10.1801 15.5545C11.979 12.7323 14.5453 10.4816 17.5781 9.06641V20.7031ZM25 5.07812C24.6892 5.07812 24.3911 5.20159 24.1714 5.42136C23.9516 5.64113 23.8281 5.9392 23.8281 6.25V24.4141L8.2422 33.4883C8.10906 33.566 7.99255 33.6692 7.89936 33.792C7.80617 33.9148 7.73812 34.0547 7.69911 34.2039C7.6601 34.353 7.6509 34.5084 7.67204 34.6611C7.69317 34.8138 7.74423 34.9608 7.82228 35.0937C9.59075 38.103 12.1188 40.5948 15.1533 42.3196C18.1878 44.0444 21.6221 44.9416 25.1125 44.9215C28.6028 44.9014 32.0266 43.9647 35.041 42.205C38.0555 40.4454 40.5546 37.9247 42.2883 34.8953C44.0221 31.8659 44.9294 28.4342 44.9196 24.9438C44.9097 21.4534 43.983 18.0268 42.2322 15.0073C40.4814 11.9877 37.9681 9.48112 34.9438 7.73853C31.9195 5.99595 28.4904 5.07852 25 5.07812ZM25 42.5781C22.1378 42.5705 19.3203 41.8678 16.7897 40.5304C14.2592 39.193 12.0914 37.2609 10.4727 34.9004L25.5859 26.0957C25.7639 25.993 25.9117 25.8452 26.0146 25.6673C26.1174 25.4894 26.1717 25.2875 26.1719 25.082V7.46094C30.7224 7.76481 34.9766 9.82535 38.0362 13.2074C41.0957 16.5894 42.7211 21.0282 42.569 25.5863C42.4169 30.1443 40.4992 34.4649 37.221 37.6354C33.9428 40.806 29.5606 42.5783 25 42.5781Z" fill="#FF9000"/>
</svg>
