<svg width="20" height="20" viewBox="0 0 20 20" fill="none" xmlns="http://www.w3.org/2000/svg">
<path d="M15.0383 13.0867C15.1257 13.1738 15.1951 13.2773 15.2424 13.3913C15.2897 13.5052 15.3141 13.6274 15.3141 13.7508C15.3141 13.8742 15.2897 13.9963 15.2424 14.1103C15.1951 14.2243 15.1257 14.3277 15.0383 14.4148L12.5383 16.9148C12.4512 17.0022 12.3477 17.0716 12.2338 17.1189C12.1198 17.1662 11.9977 17.1906 11.8743 17.1906C11.7509 17.1906 11.6287 17.1662 11.5148 17.1189C11.4008 17.0716 11.2973 17.0022 11.2102 16.9148L8.71021 14.4148C8.62301 14.3276 8.55383 14.2241 8.50663 14.1102C8.45944 13.9962 8.43515 13.8741 8.43515 13.7508C8.43515 13.6275 8.45944 13.5053 8.50663 13.3914C8.55383 13.2775 8.62301 13.1739 8.71021 13.0867C8.79742 12.9995 8.90095 12.9303 9.01489 12.8831C9.12883 12.8359 9.25095 12.8117 9.37427 12.8117C9.4976 12.8117 9.61972 12.8359 9.73366 12.8831C9.8476 12.9303 9.95113 12.9995 10.0383 13.0867L10.9376 13.9844V10C10.9376 9.75136 11.0363 9.5129 11.2121 9.33709C11.388 9.16127 11.6264 9.0625 11.8751 9.0625C12.1237 9.0625 12.3622 9.16127 12.538 9.33709C12.7138 9.5129 12.8126 9.75136 12.8126 10V13.9844L13.7118 13.0844C13.799 12.9974 13.9025 12.9284 14.0164 12.8814C14.1303 12.8344 14.2523 12.8104 14.3755 12.8106C14.4987 12.8108 14.6207 12.8353 14.7344 12.8827C14.8481 12.9301 14.9514 12.9994 15.0383 13.0867ZM12.5001 2.8125C11.2025 2.81312 9.92929 3.16468 8.81526 3.82994C7.70123 4.49519 6.78787 5.44937 6.17193 6.59141C5.4546 6.51627 4.72948 6.588 4.04077 6.8022C3.35206 7.01641 2.71418 7.36861 2.166 7.83734C1.61783 8.30608 1.17084 8.88152 0.852283 9.52862C0.533724 10.1757 0.350267 10.8809 0.313092 11.6012C0.275917 12.3215 0.385802 13.0418 0.636052 13.7183C0.886301 14.3947 1.27167 15.0131 1.76868 15.5358C2.26569 16.0585 2.86392 16.4745 3.52692 16.7584C4.18992 17.0424 4.9038 17.1884 5.62506 17.1875H6.56256C6.8112 17.1875 7.04965 17.0887 7.22547 16.9129C7.40128 16.7371 7.50006 16.4986 7.50006 16.25C7.50006 16.0014 7.40128 15.7629 7.22547 15.5871C7.04965 15.4113 6.8112 15.3125 6.56256 15.3125H5.62506C4.72928 15.307 3.87104 14.9521 3.23306 14.3232C2.59509 13.6944 2.22778 12.8414 2.20935 11.9458C2.19092 11.0502 2.52282 10.1828 3.13438 9.52824C3.74595 8.8737 4.58886 8.48375 5.48365 8.44141C5.36977 8.95311 5.31239 9.47577 5.31256 10C5.31256 10.2486 5.41133 10.4871 5.58714 10.6629C5.76296 10.8387 6.00141 10.9375 6.25006 10.9375C6.4987 10.9375 6.73715 10.8387 6.91297 10.6629C7.08878 10.4871 7.18756 10.2486 7.18756 10C7.18756 8.59104 7.74726 7.23978 8.74355 6.2435C9.73984 5.24721 11.0911 4.6875 12.5001 4.6875C13.909 4.6875 15.2603 5.24721 16.2566 6.2435C17.2528 7.23978 17.8126 8.59104 17.8126 10C17.8152 10.8302 17.6211 11.6491 17.2461 12.3898C17.1886 12.4999 17.1535 12.6203 17.1429 12.7441C17.1323 12.8679 17.1464 12.9925 17.1844 13.1107C17.2224 13.229 17.2835 13.3385 17.3641 13.433C17.4448 13.5274 17.5434 13.6049 17.6543 13.6609C17.7652 13.7169 17.8861 13.7503 18.0099 13.7592C18.1338 13.7681 18.2583 13.7523 18.376 13.7127C18.4937 13.6731 18.6024 13.6104 18.6957 13.5285C18.789 13.4465 18.8651 13.3468 18.9196 13.2352C19.4275 12.2326 19.6907 11.1239 19.6876 10C19.6855 8.09439 18.9276 6.26742 17.5801 4.91995C16.2326 3.57248 14.4057 2.81457 12.5001 2.8125Z" fill="#FF9000"/>
</svg>
