<svg width="60" height="20" viewBox="0 0 60 20" fill="none" xmlns="http://www.w3.org/2000/svg">
<path d="M8.33354 3.33329H6.0002C5.06678 3.33329 4.59972 3.33329 4.2432 3.51495C3.9296 3.67474 3.67482 3.92952 3.51503 4.24312C3.33337 4.59964 3.33337 5.0667 3.33337 6.00012V14.0001C3.33337 14.9335 3.33337 15.4 3.51503 15.7565C3.67482 16.0701 3.9296 16.3254 4.2432 16.4851C4.59938 16.6666 5.06587 16.6666 5.99747 16.6666H14.0026C14.9342 16.6666 15.4 16.6666 15.7562 16.4851C16.0698 16.3254 16.3254 16.0699 16.4852 15.7563C16.6667 15.4001 16.6667 14.9341 16.6667 14.0025V11.6666M13.3334 4.16663L8.33337 9.16663V11.6666H10.8334L15.8334 6.66663M13.3334 4.16663L15.8334 1.66663L18.3334 4.16663L15.8334 6.66663M13.3334 4.16663L15.8334 6.66663" stroke="#828282" stroke-width="2" stroke-linecap="round" stroke-linejoin="round"/>
<path d="M51.6667 8.33333V14.1667M48.3334 8.33333V14.1667M45 5V14.8333C45 15.7668 45 16.2331 45.1817 16.5897C45.3415 16.9033 45.5963 17.1587 45.9099 17.3185C46.266 17.5 46.7325 17.5 47.6641 17.5H52.3359C53.2675 17.5 53.7334 17.5 54.0895 17.3185C54.4031 17.1587 54.6588 16.9033 54.8186 16.5897C55 16.2335 55 15.7675 55 14.8359V5M45 5H46.6667M45 5H43.3334M46.6667 5H53.3334M46.6667 5C46.6667 4.22343 46.6667 3.83534 46.7936 3.52905C46.9627 3.12067 47.287 2.79602 47.6954 2.62687C48.0016 2.5 48.3901 2.5 49.1667 2.5H50.8334C51.6099 2.5 51.9982 2.5 52.3045 2.62687C52.7129 2.79602 53.0373 3.12067 53.2064 3.52905C53.3333 3.83534 53.3334 4.22343 53.3334 5M53.3334 5H55M55 5H56.6667" stroke="#828282" stroke-width="2" stroke-linecap="round" stroke-linejoin="round"/>
</svg>
