<svg width="18" height="18" viewBox="0 0 18 18" fill="none" xmlns="http://www.w3.org/2000/svg">
<path d="M17.1562 6.75C17.1562 6.97378 17.0673 7.18839 16.9091 7.34662C16.7508 7.50486 16.5362 7.59375 16.3125 7.59375H15.4687V8.4375C15.4687 8.66128 15.3798 8.87589 15.2216 9.03412C15.0633 9.19235 14.8487 9.28125 14.625 9.28125C14.4012 9.28125 14.1866 9.19235 14.0283 9.03412C13.8701 8.87589 13.7812 8.66128 13.7812 8.4375V7.59375H12.9375C12.7137 7.59375 12.4991 7.50486 12.3408 7.34662C12.1826 7.18839 12.0937 6.97378 12.0937 6.75C12.0937 6.52622 12.1826 6.31161 12.3408 6.15338C12.4991 5.99514 12.7137 5.90625 12.9375 5.90625H13.7812V5.0625C13.7812 4.83872 13.8701 4.62411 14.0283 4.46588C14.1866 4.30764 14.4012 4.21875 14.625 4.21875C14.8487 4.21875 15.0633 4.30764 15.2216 4.46588C15.3798 4.62411 15.4687 4.83872 15.4687 5.0625V5.90625H16.3125C16.5362 5.90625 16.7508 5.99514 16.9091 6.15338C17.0673 6.31161 17.1562 6.52622 17.1562 6.75ZM10.125 4.21875H10.4062V4.5C10.4062 4.72378 10.4951 4.93839 10.6533 5.09662C10.8116 5.25486 11.0262 5.34375 11.25 5.34375C11.4737 5.34375 11.6883 5.25486 11.8466 5.09662C12.0048 4.93839 12.0937 4.72378 12.0937 4.5V4.21875H12.375C12.5987 4.21875 12.8133 4.12986 12.9716 3.97162C13.1298 3.81339 13.2187 3.59878 13.2187 3.375C13.2187 3.15122 13.1298 2.93661 12.9716 2.77838C12.8133 2.62014 12.5987 2.53125 12.375 2.53125H12.0937V2.25C12.0937 2.02622 12.0048 1.81161 11.8466 1.65338C11.6883 1.49514 11.4737 1.40625 11.25 1.40625C11.0262 1.40625 10.8116 1.49514 10.6533 1.65338C10.4951 1.81161 10.4062 2.02622 10.4062 2.25V2.53125H10.125C9.90118 2.53125 9.68657 2.62014 9.52834 2.77838C9.3701 2.93661 9.28121 3.15122 9.28121 3.375C9.28121 3.59878 9.3701 3.81339 9.52834 3.97162C9.68657 4.12986 9.90118 4.21875 10.125 4.21875ZM15.4553 10.5736C15.5531 10.6871 15.6189 10.8245 15.6459 10.9718C15.673 11.1191 15.6604 11.2709 15.6093 11.4117C15.203 12.5206 14.5239 13.5093 13.6348 14.2865C12.7456 15.0637 11.675 15.6045 10.5218 15.8589C9.3685 16.1132 8.16975 16.073 7.03613 15.7419C5.90252 15.4108 4.87056 14.7996 4.03548 13.9645C3.2004 13.1294 2.58912 12.0974 2.25804 10.9638C1.92695 9.83021 1.88674 8.63146 2.1411 7.4782C2.39547 6.32494 2.93622 5.25434 3.71345 4.36517C4.49068 3.47601 5.47936 2.79694 6.58824 2.39062C6.72883 2.33926 6.88056 2.32621 7.02785 2.35284C7.17515 2.37946 7.31271 2.44478 7.42643 2.54211C7.54015 2.63944 7.62593 2.76527 7.67497 2.90669C7.72401 3.04812 7.73455 3.20004 7.7055 3.34687C7.63104 3.72673 7.59359 4.11291 7.59371 4.5C7.59538 6.06592 8.21818 7.56723 9.32546 8.6745C10.4327 9.78177 11.934 10.4046 13.5 10.4062C13.8863 10.4062 14.2718 10.3687 14.651 10.2945C14.7978 10.2655 14.9496 10.2761 15.091 10.3251C15.2323 10.3742 15.3581 10.4599 15.4553 10.5736ZM13.3593 12.0938C11.3946 12.0554 9.5211 11.2579 8.13159 9.86836C6.74209 8.47885 5.94454 6.60531 5.90621 4.64062C5.27386 5.09134 4.74734 5.67446 4.3633 6.34939C3.97926 7.02432 3.74694 7.77484 3.6825 8.5487C3.61806 9.32256 3.72305 10.1012 3.99017 10.8303C4.25729 11.5595 4.68012 12.2216 5.22922 12.7707C5.77831 13.3198 6.44048 13.7427 7.16963 14.0098C7.89879 14.2769 8.67739 14.3819 9.45125 14.3175C10.2251 14.253 10.9756 14.0207 11.6506 13.6367C12.3255 13.2526 12.9086 12.7261 13.3593 12.0938Z" fill="#FF9000"/>
</svg>
