<svg width="18" height="18" viewBox="0 0 18 18" fill="none" xmlns="http://www.w3.org/2000/svg">
<path d="M16.1817 1.81828C16.0049 1.6415 15.7843 1.51502 15.5424 1.45187C15.3006 1.38872 15.0462 1.39117 14.8056 1.45899L14.7902 1.46391L1.2965 5.55469C1.02284 5.63407 0.77974 5.7947 0.599412 6.01533C0.419084 6.23595 0.310033 6.50616 0.286704 6.79014C0.263375 7.07413 0.326869 7.35851 0.468774 7.6056C0.61068 7.8527 0.824303 8.05086 1.08135 8.17383L6.96088 11.0391L9.8233 16.9207C9.93618 17.1607 10.1152 17.3636 10.3394 17.5053C10.5637 17.6471 10.8237 17.7218 11.0889 17.7209C11.129 17.7209 11.1698 17.7209 11.2106 17.7159C11.4953 17.694 11.7665 17.5851 11.9873 17.4041C12.2081 17.223 12.368 16.9784 12.4453 16.7034L16.536 3.20977C16.5381 3.20475 16.5397 3.19958 16.541 3.1943C16.6088 2.9537 16.6112 2.69938 16.5481 2.45752C16.4849 2.21566 16.3584 1.99501 16.1817 1.81828ZM11.0327 15.544L8.61603 10.5771L11.8504 7.34625C11.9289 7.26777 11.9912 7.17459 12.0336 7.07205C12.0761 6.9695 12.098 6.85959 12.098 6.7486C12.098 6.6376 12.0761 6.52769 12.0336 6.42515C11.9912 6.3226 11.9289 6.22943 11.8504 6.15094C11.7719 6.07245 11.6787 6.0102 11.5762 5.96772C11.4737 5.92524 11.3637 5.90338 11.2528 5.90338C11.1418 5.90338 11.0319 5.92524 10.9293 5.96772C10.8268 6.0102 10.7336 6.07245 10.6551 6.15094L7.42072 9.38531L2.45596 6.96727L14.7656 3.23438L11.0327 15.544Z" fill="#FF9000"/>
</svg>
