<svg width="24" height="24" viewBox="0 0 24 24" fill="currentColor" xmlns="http://www.w3.org/2000/svg">
<path d="M20.25 14.2575V20.2491C20.25 20.448 20.171 20.6388 20.0303 20.7794C19.8897 20.9201 19.6989 20.9991 19.5 20.9991H4.5C4.30109 20.9991 4.11032 20.9201 3.96967 20.7794C3.82902 20.6388 3.75 20.448 3.75 20.2491V14.2575C3.75 14.0586 3.82902 13.8678 3.96967 13.7272C4.11032 13.5865 4.30109 13.5075 4.5 13.5075C4.69891 13.5075 4.88968 13.5865 5.03033 13.7272C5.17098 13.8678 5.25 14.0586 5.25 14.2575V19.4991H18.75V14.2575C18.75 14.0586 18.829 13.8678 18.9697 13.7272C19.1103 13.5865 19.3011 13.5075 19.5 13.5075C19.6989 13.5075 19.8897 13.5865 20.0303 13.7272C20.171 13.8678 20.25 14.0586 20.25 14.2575ZM8.25 17.2575H15.75C15.9489 17.2575 16.1397 17.1785 16.2803 17.0378C16.421 16.8972 16.5 16.7064 16.5 16.5075C16.5 16.3086 16.421 16.1178 16.2803 15.9772C16.1397 15.8365 15.9489 15.7575 15.75 15.7575H8.25C8.05109 15.7575 7.86032 15.8365 7.71967 15.9772C7.57902 16.1178 7.5 16.3086 7.5 16.5075C7.5 16.7064 7.57902 16.8972 7.71967 17.0378C7.86032 17.1785 8.05109 17.2575 8.25 17.2575ZM8.7075 12.2888L15.9516 14.2275C16.0151 14.2449 16.0807 14.2537 16.1466 14.2538C16.3275 14.2523 16.5018 14.1855 16.6373 14.0657C16.7729 13.9459 16.8605 13.7811 16.8842 13.6018C16.9078 13.4224 16.8658 13.2405 16.7659 13.0897C16.666 12.9388 16.515 12.8292 16.3406 12.7809L9.09375 10.8375C8.9959 10.8014 8.89158 10.786 8.78746 10.7925C8.68334 10.7989 8.58171 10.827 8.48907 10.875C8.39643 10.923 8.31482 10.9897 8.24944 11.071C8.18406 11.1523 8.13636 11.2463 8.10938 11.3471C8.0824 11.4479 8.07675 11.5532 8.09277 11.6562C8.10879 11.7593 8.14614 11.8579 8.20243 11.9457C8.25872 12.0336 8.33271 12.1087 8.41968 12.1663C8.50664 12.2239 8.60467 12.2627 8.7075 12.2803V12.2888ZM10.4372 7.60783L16.9322 11.3578C17.0175 11.4071 17.1117 11.4391 17.2094 11.4519C17.307 11.4648 17.4063 11.4583 17.5014 11.4328C17.5966 11.4073 17.6858 11.3632 17.7639 11.3033C17.8421 11.2433 17.9076 11.1685 17.9569 11.0831C18.0558 10.911 18.0824 10.7067 18.0309 10.515C17.9794 10.3232 17.854 10.1597 17.6822 10.0603L11.1872 6.30564C11.1018 6.25137 11.0064 6.21493 10.9066 6.19852C10.8067 6.1821 10.7046 6.18604 10.6064 6.21011C10.5082 6.23417 10.4158 6.27786 10.3349 6.33855C10.2539 6.39924 10.1861 6.47567 10.1355 6.56324C10.0849 6.65081 10.0525 6.74772 10.0403 6.84814C10.0281 6.94855 10.0363 7.05039 10.0645 7.14754C10.0927 7.24469 10.1403 7.33513 10.2043 7.41342C10.2683 7.49172 10.3476 7.55625 10.4372 7.60314V7.60783ZM18.6244 8.82657C18.6941 8.89638 18.7768 8.95178 18.8679 8.9896C18.959 9.02743 19.0566 9.04694 19.1553 9.04703C19.2539 9.04712 19.3516 9.02778 19.4428 8.99011C19.5339 8.95245 19.6168 8.89719 19.6866 8.82751C19.7564 8.75783 19.8118 8.67508 19.8496 8.58399C19.8874 8.4929 19.9069 8.39525 19.907 8.29661C19.9071 8.19798 19.8878 8.1003 19.8501 8.00914C19.8124 7.91798 19.7572 7.83513 19.6875 7.76532L14.3841 2.46845C14.2424 2.33361 14.0536 2.25944 13.8581 2.26177C13.6625 2.2641 13.4756 2.34274 13.3371 2.48092C13.1987 2.6191 13.1197 2.80589 13.1171 3.00146C13.1144 3.19703 13.1882 3.38591 13.3228 3.52782L18.6244 8.82657Z" fill="currentColor"/>
</svg>
