<svg width="50" height="50" viewBox="0 0 50 50" fill="none" xmlns="http://www.w3.org/2000/svg">
<path d="M47.5781 29.0625C47.455 29.1548 47.3149 29.222 47.1658 29.2602C47.0168 29.2984 46.8616 29.3068 46.7093 29.2851C46.5569 29.2633 46.4104 29.2117 46.2779 29.1333C46.1455 29.0549 46.0298 28.9512 45.9375 28.8281C44.9596 27.5134 43.6866 26.4468 42.2211 25.7141C40.7556 24.9813 39.1385 24.6029 37.5 24.6093C37.1892 24.6093 36.8911 24.4859 36.6714 24.2661C36.4516 24.0463 36.3281 23.7483 36.3281 23.4375C36.3281 23.1267 36.4516 22.8286 36.6714 22.6088C36.8911 22.389 37.1892 22.2656 37.5 22.2656C38.4497 22.2654 39.3804 21.9988 40.1862 21.4962C40.9921 20.9937 41.6408 20.2751 42.0588 19.4223C42.4768 18.5695 42.6472 17.6166 42.5508 16.6718C42.4543 15.7269 42.0949 14.8281 41.5132 14.0773C40.9315 13.3266 40.151 12.7539 39.2602 12.4245C38.3694 12.0951 37.4041 12.0222 36.4739 12.2139C35.5437 12.4056 34.6859 12.8543 33.998 13.509C33.31 14.1638 32.8195 14.9983 32.582 15.9179C32.5043 16.2189 32.3103 16.4767 32.0425 16.6345C31.7748 16.7924 31.4553 16.8374 31.1543 16.7597C30.8533 16.682 30.5956 16.4879 30.4377 16.2202C30.2798 15.9524 30.2348 15.6329 30.3125 15.332C30.6071 14.1863 31.1712 13.1277 31.9579 12.2443C32.7446 11.3609 33.731 10.6783 34.835 10.2535C35.939 9.82865 37.1285 9.67384 38.3045 9.80197C39.4804 9.93009 40.6087 10.3374 41.5953 10.9901C42.5819 11.6427 43.3982 12.5217 43.9762 13.5538C44.5541 14.5858 44.8771 15.7411 44.918 16.9233C44.9589 18.1055 44.7167 19.2804 44.2115 20.35C43.7063 21.4196 42.9528 22.3529 42.0137 23.0722C44.3245 23.9346 46.3378 25.4447 47.8125 27.4218C47.9048 27.5449 47.972 27.685 48.0102 27.8341C48.0484 27.9832 48.0569 28.1383 48.0351 28.2907C48.0133 28.443 47.9618 28.5896 47.8834 28.722C47.805 28.8544 47.7012 28.9701 47.5781 29.0625ZM36.9512 41.6015C37.0283 41.7348 37.0784 41.8819 37.0986 42.0345C37.1189 42.1871 37.1088 42.3422 37.0691 42.4909C37.0294 42.6396 36.9608 42.7791 36.8671 42.9013C36.7735 43.0235 36.6567 43.126 36.5234 43.2031C36.3458 43.3072 36.1434 43.3619 35.9375 43.3613C35.7317 43.3614 35.5294 43.3073 35.3511 43.2045C35.1728 43.1016 35.0248 42.9536 34.9219 42.7753C33.9032 41.0495 32.4521 39.6191 30.7118 38.6255C28.9715 37.6318 27.0021 37.1092 24.998 37.1092C22.994 37.1092 21.0246 37.6318 19.2843 38.6255C17.544 39.6191 16.0928 41.0495 15.0742 42.7753C15.001 42.9154 14.9001 43.0392 14.7778 43.1392C14.6555 43.2393 14.5141 43.3136 14.3623 43.3576C14.2106 43.4017 14.0514 43.4145 13.8945 43.3955C13.7376 43.3764 13.5862 43.3258 13.4494 43.2467C13.3125 43.1676 13.1931 43.0617 13.0983 42.9352C13.0035 42.8088 12.9352 42.6645 12.8976 42.511C12.86 42.3574 12.8539 42.1979 12.8795 42.042C12.9052 41.886 12.9621 41.7369 13.0469 41.6035C14.643 38.861 17.1422 36.7581 20.1172 35.6543C18.4921 34.5991 17.2517 33.0469 16.5809 31.2291C15.9102 29.4113 15.845 27.4254 16.3953 25.5676C16.9455 23.7098 18.0816 22.0796 19.634 20.9202C21.1865 19.7609 23.0722 19.1345 25.0098 19.1345C26.9474 19.1345 28.833 19.7609 30.3855 20.9202C31.938 22.0796 33.0741 23.7098 33.6243 25.5676C34.1745 27.4254 34.1094 29.4113 33.4386 31.2291C32.7679 33.0469 31.5274 34.5991 29.9023 35.6543C32.869 36.7619 35.36 38.8636 36.9512 41.6015ZM25 34.7656C26.3134 34.7656 27.5973 34.3761 28.6893 33.6464C29.7814 32.9168 30.6325 31.8796 31.1351 30.6662C31.6378 29.4528 31.7693 28.1176 31.513 26.8294C31.2568 25.5413 30.6243 24.358 29.6956 23.4293C28.7669 22.5006 27.5837 21.8682 26.2955 21.6119C25.0074 21.3557 23.6722 21.4872 22.4587 21.9898C21.2453 22.4924 20.2082 23.3436 19.4785 24.4356C18.7488 25.5277 18.3594 26.8116 18.3594 28.125C18.3594 29.8862 19.059 31.5752 20.3044 32.8206C21.5497 34.0659 23.2388 34.7656 25 34.7656ZM13.6719 23.4375C13.6719 23.1267 13.5484 22.8286 13.3286 22.6088C13.1089 22.389 12.8108 22.2656 12.5 22.2656C11.5504 22.2653 10.6199 21.9987 9.81412 21.4961C9.00838 20.9936 8.3597 20.2751 7.94175 19.4224C7.5238 18.5697 7.35333 17.6169 7.44968 16.6722C7.54604 15.7275 7.90537 14.8287 8.48686 14.0779C9.06836 13.3271 9.84872 12.7545 10.7393 12.4249C11.6299 12.0954 12.5951 12.0221 13.5252 12.2136C14.4554 12.405 15.3132 12.8534 16.0013 13.5079C16.6894 14.1623 17.1802 14.9966 17.418 15.916C17.4564 16.065 17.5239 16.205 17.6165 16.3279C17.709 16.4509 17.8249 16.5544 17.9575 16.6326C18.0901 16.7107 18.2367 16.762 18.3891 16.7835C18.5415 16.805 18.6967 16.7962 18.8457 16.7578C18.9947 16.7193 19.1347 16.6518 19.2577 16.5593C19.3806 16.4667 19.4841 16.3508 19.5623 16.2182C19.6405 16.0857 19.6918 15.939 19.7132 15.7866C19.7347 15.6342 19.726 15.4791 19.6875 15.33C19.3929 14.1844 18.8288 13.1258 18.0421 12.2424C17.2554 11.359 16.269 10.6764 15.165 10.2515C14.061 9.8267 12.8715 9.67189 11.6955 9.80001C10.5196 9.92814 9.3913 10.3355 8.40471 10.9881C7.41812 11.6407 6.60182 12.5197 6.02383 13.5518C5.44585 14.5839 5.12293 15.7392 5.082 16.9214C5.04106 18.1036 5.28329 19.2784 5.78849 20.348C6.2937 21.4176 7.04725 22.351 7.98633 23.0703C5.67523 23.9331 3.66189 25.444 2.1875 27.4218C2.09516 27.5449 2.02798 27.685 1.98979 27.8341C1.9516 27.9832 1.94314 28.1383 1.9649 28.2907C1.98667 28.443 2.03822 28.5896 2.11663 28.722C2.19504 28.8544 2.29876 28.9701 2.42188 29.0625C2.54499 29.1548 2.68508 29.222 2.83416 29.2602C2.98324 29.2984 3.13838 29.3068 3.29073 29.2851C3.44307 29.2633 3.58964 29.2117 3.72206 29.1333C3.85448 29.0549 3.97016 28.9512 4.0625 28.8281C5.04044 27.5134 6.31342 26.4468 7.77892 25.7141C9.24443 24.9813 10.8615 24.6029 12.5 24.6093C12.8108 24.6093 13.1089 24.4859 13.3286 24.2661C13.5484 24.0463 13.6719 23.7483 13.6719 23.4375Z" fill="#FF9000"/>
</svg>
