<svg width="24" height="20" viewBox="0 0 24 20" fill="none" xmlns="http://www.w3.org/2000/svg">
<path d="M12.5988 19.2798C12.4677 19.1491 12.3637 18.9939 12.2927 18.823C12.2218 18.652 12.1852 18.4688 12.1852 18.2837C12.1852 18.0986 12.2218 17.9153 12.2927 17.7444C12.3637 17.5735 12.4677 17.4182 12.5988 17.2876L18.6328 11.2536L1.40626 11.2536C1.0333 11.2536 0.675619 11.1055 0.411896 10.8417C0.148173 10.578 1.40968e-05 10.2203 1.41131e-05 9.84736C1.41294e-05 9.4744 0.148173 9.11672 0.411896 8.85299C0.675619 8.58927 1.0333 8.44111 1.40626 8.44111L18.6328 8.44111L12.5988 2.40478C12.3347 2.1406 12.1862 1.7823 12.1862 1.40869C12.1862 1.03508 12.3347 0.676776 12.5988 0.412595C12.863 0.148415 13.2213 -4.46766e-07 13.5949 -4.30435e-07C13.9685 -4.14104e-07 14.3268 0.148415 14.591 0.412595L23.0285 8.8501C23.1596 8.98074 23.2636 9.13598 23.3346 9.30691C23.4056 9.47785 23.4421 9.66111 23.4421 9.84619C23.4421 10.0313 23.4056 10.2145 23.3346 10.3855C23.2636 10.5564 23.1596 10.7116 23.0285 10.8423L14.591 19.2798C14.4604 19.4109 14.3051 19.5149 14.1342 19.5859C13.9633 19.6569 13.78 19.6934 13.5949 19.6934C13.4099 19.6934 13.2266 19.6569 13.0557 19.5859C12.8847 19.5149 12.7295 19.4109 12.5988 19.2798Z" fill="white"/>
</svg>
